<mxfile host="app.diagrams.net" agent="Mozilla/5.0 (Macintosh; Intel Mac OS X 10_15_7) AppleWebKit/605.1.15 (KHTML, like Gecko) Version/17.6 Safari/605.1.15" version="24.7.15">
  <diagram name="Page-1" id="Awp3_F7C_z5ZrL3gzjpm">
    <mxGraphModel dx="1026" dy="692" grid="1" gridSize="10" guides="1" tooltips="1" connect="1" arrows="1" fold="1" page="1" pageScale="1" pageWidth="850" pageHeight="1100" math="0" shadow="0">
      <root>
        <mxCell id="0" />
        <mxCell id="1" parent="0" />
        <mxCell id="v9sIgq86dhHqkVJE0dsQ-2" value="" style="swimlane;startSize=0;" vertex="1" parent="1">
          <mxGeometry x="100" y="40" width="640" height="560" as="geometry" />
        </mxCell>
        <mxCell id="v9sIgq86dhHqkVJE0dsQ-8" style="edgeStyle=orthogonalEdgeStyle;rounded=0;orthogonalLoop=1;jettySize=auto;html=1;entryX=0.5;entryY=0;entryDx=0;entryDy=0;" edge="1" parent="v9sIgq86dhHqkVJE0dsQ-2" source="v9sIgq86dhHqkVJE0dsQ-3" target="v9sIgq86dhHqkVJE0dsQ-6">
          <mxGeometry relative="1" as="geometry" />
        </mxCell>
        <mxCell id="v9sIgq86dhHqkVJE0dsQ-3" value="API gateway" style="ellipse;whiteSpace=wrap;html=1;" vertex="1" parent="v9sIgq86dhHqkVJE0dsQ-2">
          <mxGeometry x="250" y="50" width="120" height="80" as="geometry" />
        </mxCell>
        <mxCell id="v9sIgq86dhHqkVJE0dsQ-4" value="" style="image;aspect=fixed;html=1;points=[];align=center;fontSize=12;image=img/lib/azure2/databases/Azure_Cosmos_DB.svg;" vertex="1" parent="v9sIgq86dhHqkVJE0dsQ-2">
          <mxGeometry x="40" y="440" width="64" height="64" as="geometry" />
        </mxCell>
        <mxCell id="v9sIgq86dhHqkVJE0dsQ-5" value="" style="image;aspect=fixed;html=1;points=[];align=center;fontSize=12;image=img/lib/azure2/databases/Azure_Cosmos_DB.svg;" vertex="1" parent="v9sIgq86dhHqkVJE0dsQ-2">
          <mxGeometry x="550" y="440" width="64" height="64" as="geometry" />
        </mxCell>
        <mxCell id="v9sIgq86dhHqkVJE0dsQ-6" value="Command mS for uploading file" style="ellipse;whiteSpace=wrap;html=1;" vertex="1" parent="v9sIgq86dhHqkVJE0dsQ-2">
          <mxGeometry y="270" width="120" height="80" as="geometry" />
        </mxCell>
        <mxCell id="v9sIgq86dhHqkVJE0dsQ-7" value="Query mS for view the file" style="ellipse;whiteSpace=wrap;html=1;" vertex="1" parent="v9sIgq86dhHqkVJE0dsQ-2">
          <mxGeometry x="510" y="260" width="120" height="80" as="geometry" />
        </mxCell>
        <mxCell id="v9sIgq86dhHqkVJE0dsQ-10" style="edgeStyle=orthogonalEdgeStyle;rounded=0;orthogonalLoop=1;jettySize=auto;html=1;entryX=0.583;entryY=0.025;entryDx=0;entryDy=0;entryPerimeter=0;" edge="1" parent="v9sIgq86dhHqkVJE0dsQ-2" source="v9sIgq86dhHqkVJE0dsQ-3" target="v9sIgq86dhHqkVJE0dsQ-7">
          <mxGeometry relative="1" as="geometry" />
        </mxCell>
        <mxCell id="v9sIgq86dhHqkVJE0dsQ-12" value="" style="whiteSpace=wrap;html=1;aspect=fixed;" vertex="1" parent="v9sIgq86dhHqkVJE0dsQ-2">
          <mxGeometry x="220" y="330" width="200" height="200" as="geometry" />
        </mxCell>
        <mxCell id="v9sIgq86dhHqkVJE0dsQ-13" value="Source Connector" style="rounded=1;whiteSpace=wrap;html=1;direction=south;" vertex="1" parent="v9sIgq86dhHqkVJE0dsQ-2">
          <mxGeometry x="240" y="380" width="60" height="120" as="geometry" />
        </mxCell>
        <mxCell id="v9sIgq86dhHqkVJE0dsQ-21" style="edgeStyle=orthogonalEdgeStyle;rounded=0;orthogonalLoop=1;jettySize=auto;html=1;" edge="1" parent="v9sIgq86dhHqkVJE0dsQ-2" source="v9sIgq86dhHqkVJE0dsQ-14" target="v9sIgq86dhHqkVJE0dsQ-5">
          <mxGeometry relative="1" as="geometry" />
        </mxCell>
        <mxCell id="v9sIgq86dhHqkVJE0dsQ-14" value="Sink Connector" style="rounded=1;whiteSpace=wrap;html=1;direction=south;" vertex="1" parent="v9sIgq86dhHqkVJE0dsQ-2">
          <mxGeometry x="340" y="380" width="60" height="120" as="geometry" />
        </mxCell>
        <mxCell id="v9sIgq86dhHqkVJE0dsQ-16" style="edgeStyle=orthogonalEdgeStyle;rounded=0;orthogonalLoop=1;jettySize=auto;html=1;entryX=0.469;entryY=0.156;entryDx=0;entryDy=0;entryPerimeter=0;" edge="1" parent="v9sIgq86dhHqkVJE0dsQ-2" source="v9sIgq86dhHqkVJE0dsQ-6" target="v9sIgq86dhHqkVJE0dsQ-4">
          <mxGeometry relative="1" as="geometry" />
        </mxCell>
        <mxCell id="v9sIgq86dhHqkVJE0dsQ-20" style="edgeStyle=orthogonalEdgeStyle;rounded=0;orthogonalLoop=1;jettySize=auto;html=1;entryX=0.938;entryY=0.453;entryDx=0;entryDy=0;entryPerimeter=0;" edge="1" parent="v9sIgq86dhHqkVJE0dsQ-2" source="v9sIgq86dhHqkVJE0dsQ-13" target="v9sIgq86dhHqkVJE0dsQ-4">
          <mxGeometry relative="1" as="geometry" />
        </mxCell>
        <mxCell id="v9sIgq86dhHqkVJE0dsQ-15" value="Kafka Connector" style="text;html=1;align=center;verticalAlign=middle;whiteSpace=wrap;rounded=0;" vertex="1" parent="1">
          <mxGeometry x="340" y="340" width="170" height="30" as="geometry" />
        </mxCell>
      </root>
    </mxGraphModel>
  </diagram>
</mxfile>
